 <svg  version="1.0" xmlns="http://www.w3.org/2000/svg"  width="120.000000pt" height="134.000000pt" viewBox="0 0 120.000000 134.000000"  preserveAspectRatio="xMidYMid meet">  <g transform="translate(0.000000,134.000000) scale(0.050000,-0.050000)" fill="#ffca18" stroke="none"> <path d="M595 2166 c-47 -12 -44 -77 6 -148 41 -57 45 -58 228 -58 l187 0 136 -185 c75 -102 172 -229 216 -282 96 -117 107 -87 -179 -473 l-192 -260 -185 0 -185 0 -67 -85 c-37 -47 -75 -96 -86 -110 -15 -20 54 -25 329 -25 l347 0 280 393 c154 216 287 404 295 418 10 17 -87 171 -270 427 l-285 402 -270 -2 c-148 -2 -286 -7 -305 -12z"/> <path d="M823 1715 c68 -91 153 -205 190 -253 41 -54 60 -97 50 -110 -10 -12 -99 -132 -200 -267 l-182 -245 129 0 129 0 183 245 c102 135 192 255 201 267 11 14 -55 117 -173 275 l-191 253 -129 0 -129 0 122 -165z"/> </g> </svg> 