 <svg  version="1.0" xmlns="http://www.w3.org/2000/svg"  width="80.000000pt" height="50.000000pt" viewBox="0 0 300.000000 171.000000"  preserveAspectRatio="xMidYMid meet">  <g transform="translate(0.000000,171.000000) scale(0.050000,-0.050000)" fill="#ffca18" stroke="none"> <path d="M2200 3201 c-203 -69 -714 -319 -938 -460 -89 -56 -167 -101 -173 -101 -16 0 -233 -147 -409 -277 -362 -268 -467 -424 -360 -538 62 -67 155 -74 580 -43 17 1 89 10 160 19 72 10 175 23 230 29 55 6 114 16 130 21 40 12 139 25 310 40 77 7 145 20 150 29 6 8 123 12 260 8 138 -4 265 -7 283 -7 99 -2 47 -138 -85 -222 -113 -73 -434 -218 -482 -219 -18 0 -39 -8 -45 -18 -6 -9 -35 -22 -66 -28 -116 -22 -172 -37 -205 -54 -18 -10 -78 -24 -132 -31 -54 -7 -106 -18 -116 -24 -36 -22 -228 -28 -240 -8 -13 21 64 76 93 67 8 -2 13 6 10 19 -3 12 8 27 23 32 18 7 22 2 12 -15 -11 -17 -8 -21 7 -12 13 8 19 23 13 32 -6 10 7 28 29 40 23 12 41 14 41 6 0 -9 7 -7 15 5 28 38 214 144 320 180 58 20 105 44 105 53 0 9 36 16 80 16 47 0 80 10 80 23 0 62 -334 -19 -576 -139 -534 -265 -524 -545 16 -438 39 7 97 18 130 24 33 6 74 17 90 24 37 15 57 21 119 34 334 74 823 316 911 451 177 272 -120 412 -700 332 -33 -5 -118 -14 -190 -21 -71 -7 -143 -16 -160 -21 -16 -4 -66 -12 -110 -18 -44 -5 -116 -15 -160 -20 -44 -6 -120 -17 -170 -23 -49 -6 -112 -15 -140 -20 -158 -25 -516 -31 -529 -9 -34 54 440 439 739 601 66 36 134 77 150 91 140 119 1140 571 1225 553 64 -13 52 -118 -31 -264 -35 -60 -61 -117 -59 -125 3 -8 -6 -13 -20 -10 -14 3 -25 -10 -25 -27 0 -18 -13 -47 -28 -65 -57 -70 20 -30 97 49 92 94 201 300 201 378 0 167 -163 202 -460 101z"/> <path d="M3702 2240 c-44 -55 -122 -172 -175 -260 -117 -198 -158 -193 -104 12 5 19 -19 173 -36 233 -22 78 -67 -22 -96 -213 -20 -132 -35 -175 -105 -300 -137 -243 -138 -241 -95 253 21 239 -56 217 -171 -49 -38 -90 -81 -167 -95 -171 -41 -14 -29 44 45 212 39 88 70 168 70 178 0 41 100 74 143 48 57 -36 68 -14 19 35 -136 136 -339 -86 -436 -478 -19 -76 -9 -186 19 -214 30 -30 155 -21 155 11 0 44 94 128 106 95 9 -23 6 -29 -9 -20 -17 10 -20 -12 -10 -82 15 -108 76 -178 138 -158 46 14 195 168 195 200 0 40 50 70 75 45 29 -29 97 13 166 102 27 35 65 82 84 105 19 23 35 57 35 76 0 19 18 50 41 71 40 37 41 36 33 -34 -4 -39 -14 -80 -21 -92 -7 -11 1 -47 17 -78 16 -31 30 -72 30 -90 0 -27 37 -57 72 -57 4 0 8 29 8 65 -1 36 19 182 43 326 61 359 18 430 -141 229z"/> <path d="M4372 2276 c-30 -36 -109 -154 -176 -261 -124 -202 -172 -245 -146 -130 28 121 14 307 -25 339 -34 29 -63 -7 -67 -84 -4 -62 -11 -116 -24 -180 -33 -163 -37 -203 -24 -259 17 -78 78 -114 138 -82 57 32 212 238 212 283 0 30 53 78 86 78 5 0 1 -40 -10 -89 -16 -74 -12 -105 21 -180 48 -107 82 -117 85 -26 2 87 9 151 27 235 31 149 34 174 38 290 4 150 -45 173 -135 66z"/> <path d="M5186 2324 c-14 -8 -53 -69 -88 -135 -111 -210 -354 -509 -413 -509 -51 0 -46 318 7 403 9 15 5 18 -11 8 -19 -12 -22 -5 -12 26 9 27 5 43 -9 43 -12 0 -17 -9 -10 -20 7 -11 4 -20 -7 -20 -73 0 -128 -495 -62 -561 70 -70 264 23 345 166 61 106 102 48 45 -63 -16 -32 -24 -62 -17 -69 6 -7 1 -25 -12 -40 -13 -16 -28 -48 -33 -71 -5 -23 -13 -60 -19 -82 -5 -22 -14 -58 -20 -80 -5 -22 -14 -56 -18 -75 -4 -19 -17 -71 -29 -115 -12 -44 -26 -102 -31 -130 -5 -27 -33 -133 -61 -235 -27 -102 -54 -205 -59 -230 -4 -25 -18 -69 -29 -98 -11 -29 -20 -96 -20 -150 0 -53 -8 -135 -19 -182 -23 -106 41 -92 67 15 1 6 25 60 53 120 28 61 57 142 65 180 8 39 27 106 42 150 16 44 33 103 38 130 5 28 23 100 39 160 16 61 35 142 42 180 21 119 27 142 100 430 40 154 74 294 78 310 3 17 11 44 18 60 7 17 31 89 54 160 23 72 57 159 76 195 47 92 -13 179 -90 129z"/> </g> </svg> 