<svg height="60" viewBox = "0 0 296 249" xmlns="http://www.w3.org/2000/svg">
<g fill="None" fill-opacity="0.0" stroke="#000000" stroke-opacity="0.00" stroke-width="0.3"><path d="
M 0.00 249.00 
L 296.00 249.00
L 296.00 0.00
L 0.00 0.00
L 0.00 249.00
M 166.00 15.00 
C 173.47 15.65 180.84 17.00 188.00 19.00
C 192.02 20.12 196.05 21.73 200.00 23.00
C 203.03 23.97 207.22 25.15 209.00 28.00
C 209.50 28.04 210.00 28.00 210.00 28.00
C 213.92 28.86 217.14 32.55 220.00 35.00
C 221.22 36.05 222.82 36.99 224.00 38.00
C 226.17 39.47 228.96 40.96 231.00 43.00
C 234.18 45.46 236.28 47.81 239.00 51.00
C 240.96 53.29 243.29 55.59 245.00 58.00
C 245.91 59.29 246.26 60.88 247.00 62.00
C 248.25 63.90 251.15 65.63 252.00 68.00
C 252.09 68.24 251.35 68.96 251.00 69.00
C 251.50 69.54 251.69 70.37 252.00 71.00
C 258.37 76.92 260.52 87.35 263.00 96.00
C 263.61 98.12 264.69 100.39 265.00 103.00
C 265.29 104.24 265.68 106.33 266.00 108.00
C 266.26 109.35 266.80 110.49 267.00 112.00
C 267.38 113.48 268.11 114.90 268.00 117.00
C 267.97 117.50 268.00 118.50 268.00 119.00
C 268.00 127.22 268.74 135.82 268.00 144.00
C 275.80 147.78 273.26 158.09 274.00 166.00
C 281.14 162.49 279.60 156.28 285.30 151.30 C 291.01 146.33 289.35 158.66 283.75 162.75 C 278.15 166.84 274.67 173.95 275.00 181.00 C 275.33 188.05 273.32 198.10 271.67 204.67 C 270.03 211.24 265.64 215.68 260.75 219.75 C 255.87 223.83 246.02 223.62 242.25 217.75 C 238.48 211.88 239.68 202.11 243.77 196.77 C 247.86 191.44 250.16 186.32 256.25 182.25 C 262.34 178.18 262.28 167.65 260.00 161.00
C 259.19 175.57 236.11 185.64 233.00 167.00
C 230.44 173.01 218.13 197.13 208.26 186.74 C 198.38 176.36 214.56 156.05 210.00 144.00
C 195.98 148.41 198.95 170.32 190.30 179.30 C 181.65 188.28 176.83 172.06 178.00 167.00
C 177.16 173.77 163.72 197.03 154.26 186.74 C 144.80 176.46 160.23 156.07 156.00 144.00
C 147.89 144.65 148.48 152.82 144.69 158.69 C 140.91 164.57 142.66 172.76 137.69 178.69 C 132.73 184.63 120.76 178.00 124.00 170.00
C 120.84 176.60 119.09 188.60 109.33 189.33 C 99.57 190.05 100.33 174.40 99.00 168.00
C 96.71 172.20 91.18 179.69 85.00 178.00 C 78.82 176.31 78.88 166.04 77.00 162.00
C 72.12 168.22 81.56 179.18 78.07 188.07 C 74.58 196.97 68.99 202.44 60.32 205.32 C 51.66 208.20 39.91 210.02 32.77 203.23 C 25.63 196.44 29.65 184.57 34.75 177.75 C 39.86 170.93 50.32 168.13 58.00 166.00
C 49.83 155.95 38.42 148.12 33.00 137.00
C 27.11 141.78 17.42 135.92 14.70 146.70 C 11.98 157.47 6.42 149.90 11.92 141.92 C 17.41 133.94 23.50 136.88 30.00 132.00
C 22.14 120.49 21.96 93.07 42.00 95.00
C 41.31 93.36 43.36 88.57 44.00 87.00
C 44.57 85.60 45.40 84.38 46.00 83.00
C 47.46 79.66 49.52 76.12 51.00 73.00
C 51.27 72.01 50.86 72.30 51.00 71.00
C 51.34 67.91 55.43 65.15 57.00 63.00
C 57.96 61.68 58.83 59.48 60.00 58.00
C 66.53 49.73 72.52 43.31 81.00 37.00
C 82.59 35.82 84.50 35.16 86.00 34.00
C 87.44 32.89 88.57 30.97 90.00 30.00
C 90.34 29.77 91.50 30.00 92.00 30.00
C 92.55 28.28 94.55 27.68 96.00 27.00
C 98.17 25.97 100.71 25.00 103.00 24.00
C 104.51 23.34 106.38 22.59 108.00 22.00
C 109.85 21.05 110.74 20.56 113.00 20.00
C 121.29 17.96 129.30 15.75 138.00 15.00
C 139.34 14.74 141.08 14.08 143.00 14.00
C 148.93 13.76 155.07 13.76 161.00 14.00
C 162.97 14.08 164.66 14.74 166.00 15.00 Z"/>
</g>
<g fill="None" fill-opacity="0.0" stroke="#5E6A76" stroke-opacity="0.58" stroke-width="0.3"><path d="
M 138.00 15.00 
C 139.74 14.85 141.88 14.16 143.00 14.00
C 141.08 14.08 139.34 14.74 138.00 15.00 Z"/>
</g>
<g fill="None" fill-opacity="0.0" stroke="#FBD50A" stroke-opacity="1.00" stroke-width="0.3"><path d="
M 138.00 15.00 
C 129.30 15.75 121.29 17.96 113.00 20.00
C 112.76 20.07 112.34 20.85 112.00 21.00
C 109.28 23.27 106.25 23.69 103.00 25.00
C 100.68 26.33 98.35 27.77 96.00 29.00
C 94.91 29.57 94.30 29.99 93.00 30.00
C 89.81 37.63 77.59 39.58 72.75 46.75 C 67.91 53.93 59.84 60.08 55.00 67.00
C 54.51 68.06 54.40 68.96 54.00 70.00
C 51.58 76.29 46.92 82.13 44.00 87.00
C 43.36 88.57 41.31 93.36 42.00 95.00
C 42.49 95.12 43.59 95.75 44.00 96.00
C 46.57 94.83 44.66 87.67 47.00 86.00
C 49.93 91.07 57.52 87.30 61.00 91.00
C 67.98 86.11 65.65 73.47 71.25 68.25 C 76.86 63.03 87.72 62.98 88.00 54.00
C 91.83 51.68 92.88 60.03 93.00 54.00
C 96.86 54.07 99.97 53.25 103.67 53.33 C 107.38 53.41 109.06 57.87 111.00 55.00
C 110.96 60.24 102.81 72.12 113.00 72.00
C 114.05 75.53 111.83 76.80 110.00 79.00
C 111.77 81.03 115.48 79.53 118.00 80.00
C 113.14 80.93 107.02 81.40 106.00 88.00
C 109.96 92.30 118.32 88.76 120.00 95.00
C 118.64 100.35 114.22 102.49 110.33 105.33 C 106.43 108.17 98.53 106.61 98.00 113.00
C 92.69 112.29 91.02 118.69 85.00 115.00
C 83.50 119.62 76.96 119.47 76.00 125.00
C 81.60 128.94 81.45 137.43 84.00 140.00
C 79.61 140.83 74.58 137.97 76.00 133.00
C 73.09 132.76 70.82 134.76 68.00 135.00
C 65.72 140.99 68.32 146.27 69.00 150.00
C 72.67 153.46 75.54 148.74 78.00 153.00
C 79.62 150.35 78.00 145.54 83.00 147.00
C 89.60 143.59 97.39 142.73 102.00 150.00
C 102.83 138.78 118.07 141.23 116.02 151.02 C 113.98 160.82 111.83 170.34 115.00 179.00
C 119.40 170.10 122.84 165.40 124.78 154.78 C 126.72 144.15 142.31 148.57 140.00 160.00
C 142.21 149.99 152.70 131.40 165.25 140.75 C 177.79 150.11 159.92 169.93 168.00 179.00
C 171.43 169.59 176.58 166.24 178.32 155.32 C 180.06 144.40 196.36 147.98 194.00 160.00
C 196.20 150.67 205.96 131.32 218.69 140.31 C 231.43 149.30 216.08 168.72 221.00 180.00
C 224.64 175.55 226.70 167.37 229.78 162.78 C 232.85 158.19 231.12 145.79 240.03 147.03 C 248.93 148.26 245.33 156.90 246.00 165.00 C 246.67 173.10 255.12 165.92 256.31 159.31 C 257.49 152.69 259.19 144.64 267.00 144.00
C 266.37 136.99 265.46 124.97 268.00 119.00
C 268.00 118.50 267.97 117.50 268.00 117.00
C 267.44 115.43 267.27 114.02 267.00 112.00
C 266.80 110.49 266.26 109.35 266.00 108.00
C 265.50 106.47 265.24 105.00 265.00 103.00
C 264.69 100.39 263.61 98.12 263.00 96.00
C 258.95 88.32 256.02 79.18 252.00 71.00
C 251.69 70.37 251.50 69.54 251.00 69.00
C 238.61 55.67 227.33 42.48 213.00 31.00
C 211.11 29.78 210.72 30.18 210.00 28.00
C 210.00 28.00 209.50 28.04 209.00 28.00
C 205.85 27.77 202.76 25.59 200.00 24.00
C 195.53 24.31 191.43 20.38 188.00 19.00
C 180.84 17.00 173.47 15.65 166.00 15.00
C 164.26 14.85 162.12 14.16 161.00 14.00
C 155.07 13.76 148.93 13.76 143.00 14.00
C 141.88 14.16 139.74 14.85 138.00 15.00
M 161.00 46.00 
C 157.17 57.99 175.36 54.26 174.00 66.00
C 179.40 65.46 177.20 73.83 184.00 71.00
C 183.40 67.96 186.61 66.07 186.00 63.00
C 190.19 61.99 191.67 67.81 196.00 65.00
C 195.39 69.92 199.61 70.34 201.00 75.00
C 204.00 75.00 207.00 75.00 210.00 75.00
C 212.26 81.79 221.29 77.71 225.68 82.32 C 230.07 86.94 241.43 80.05 238.00 88.00
C 241.76 88.37 240.43 83.95 242.00 82.00
C 246.41 82.77 245.62 88.30 242.00 89.00
C 243.53 91.57 244.85 94.70 246.00 98.00
C 241.34 101.04 238.39 109.97 246.00 112.00
C 243.47 115.86 246.57 120.06 247.00 124.00
C 242.72 129.10 240.08 139.39 236.00 128.00
C 239.36 127.52 243.99 121.18 240.22 117.78 C 236.45 114.38 230.09 119.57 226.00 119.00
C 226.64 115.09 227.56 111.73 222.00 113.00
C 222.46 109.94 220.84 107.76 222.00 105.00
C 217.07 106.10 213.95 101.58 215.00 97.00
C 213.27 103.45 202.62 96.53 199.75 100.76 C 196.89 104.98 197.68 112.57 195.00 117.00
C 193.36 113.87 191.87 112.40 194.00 109.00
C 178.70 115.48 169.62 102.75 161.00 94.00
C 162.58 89.93 165.71 88.88 166.00 84.00
C 162.18 85.26 157.70 84.28 154.00 86.00
C 157.22 91.44 153.57 98.18 153.00 105.00
C 146.97 105.31 143.99 110.94 137.00 108.00 C 130.00 105.07 129.99 116.76 124.00 116.00
C 124.25 119.40 127.52 120.41 127.00 124.00
C 131.92 123.11 134.54 127.44 139.00 127.00
C 140.64 129.11 138.40 130.68 141.00 132.00
C 136.90 133.82 137.25 128.28 133.00 128.00
C 129.54 130.17 127.06 130.47 126.03 135.03 C 124.99 139.58 119.00 138.40 124.00 142.00
C 121.39 140.32 120.13 142.76 118.00 144.00
C 114.81 141.31 112.70 138.03 108.00 138.00
C 108.59 133.61 105.68 129.70 109.00 126.00
C 111.82 127.30 114.97 127.40 118.00 128.00
C 117.51 125.27 118.30 122.98 120.00 121.00
C 115.10 117.72 116.81 111.17 117.00 106.00
C 119.77 107.19 126.73 106.63 129.70 104.69 C 132.66 102.75 130.47 90.91 139.00 94.00
C 138.43 91.22 134.52 92.81 134.00 90.00
C 137.11 86.18 133.09 79.39 135.00 74.00
C 132.09 74.59 129.94 72.41 127.00 73.00
C 128.02 70.86 130.72 67.91 133.00 67.00
C 132.15 62.15 133.83 58.20 135.00 54.00
C 140.83 51.57 147.55 56.07 152.00 51.00
C 150.27 49.58 145.81 50.01 147.00 46.00
C 152.43 47.19 155.37 48.02 161.00 46.00
M 229.00 71.00 
C 225.67 71.00 222.33 71.00 219.00 71.00
C 219.99 67.73 216.14 67.61 214.00 67.00
C 209.79 60.01 206.31 48.32 218.67 50.33 C 231.04 52.34 230.09 61.24 229.00 71.00 Z"/>
</g>
<g fill="None" fill-opacity="0.0" stroke="#667761" stroke-opacity="0.58" stroke-width="0.3"><path d="
M 166.00 15.00 
C 164.66 14.74 162.97 14.08 161.00 14.00
C 162.12 14.16 164.26 14.85 166.00 15.00 Z"/>
</g>
<g fill="None" fill-opacity="0.0" stroke="#A8B555" stroke-opacity="0.49" stroke-width="0.3"><path d="
M 200.00 24.00 
C 199.78 23.88 200.00 23.00 200.00 23.00
C 196.05 21.73 192.02 20.12 188.00 19.00
C 191.43 20.38 195.53 24.31 200.00 24.00 Z"/>
</g>
<g fill="None" fill-opacity="0.0" stroke="#33507B" stroke-opacity="0.19" stroke-width="0.3"><path d="
M 108.00 22.00 
C 109.20 21.56 110.81 21.52 112.00 21.00
C 112.34 20.85 112.76 20.07 113.00 20.00
C 110.74 20.56 109.85 21.05 108.00 22.00 Z"/>
</g>
<g fill="None" fill-opacity="0.0" stroke="#94A852" stroke-opacity="0.45" stroke-width="0.3"><path d="
M 108.00 22.00 
C 106.38 22.59 104.51 23.34 103.00 24.00
C 102.86 24.04 103.00 25.00 103.00 25.00
C 106.25 23.69 109.28 23.27 112.00 21.00
C 110.81 21.52 109.20 21.56 108.00 22.00 Z"/>
</g>
<g fill="None" fill-opacity="0.0" stroke="#3D5B7C" stroke-opacity="0.22" stroke-width="0.3"><path d="
M 200.00 24.00 
C 202.76 25.59 205.85 27.77 209.00 28.00
C 207.22 25.15 203.03 23.97 200.00 23.00
C 200.00 23.00 199.78 23.88 200.00 24.00 Z"/>
</g>
<g fill="None" fill-opacity="0.0" stroke="#6E885D" stroke-opacity="0.30" stroke-width="0.3"><path d="
M 96.00 27.00 
C 95.75 27.21 96.17 28.57 96.00 29.00
C 98.35 27.77 100.68 26.33 103.00 25.00
C 103.00 25.00 102.86 24.04 103.00 24.00
C 100.71 25.00 98.17 25.97 96.00 27.00 Z"/>
</g>
<g fill="None" fill-opacity="0.0" stroke="#405E88" stroke-opacity="0.24" stroke-width="0.3"><path d="
M 92.00 30.00 
C 92.50 30.00 93.00 30.00 93.00 30.00
C 94.30 29.99 94.91 29.57 96.00 29.00
C 96.17 28.57 95.75 27.21 96.00 27.00
C 94.55 27.68 92.55 28.28 92.00 30.00 Z"/>
</g>
<g fill="None" fill-opacity="0.0" stroke="#334F83" stroke-opacity="0.20" stroke-width="0.3"><path d="
M 213.00 31.00 
C 215.26 32.45 217.81 33.48 220.00 35.00
C 217.14 32.55 213.92 28.86 210.00 28.00
C 210.72 30.18 211.11 29.78 213.00 31.00 Z"/>
</g>
<g fill="None" fill-opacity="0.0" stroke="#2D4D74" stroke-opacity="0.20" stroke-width="0.3"><path d="
M 86.00 34.00 
C 89.13 31.88 89.65 33.68 90.00 30.00
C 88.57 30.97 87.44 32.89 86.00 34.00 Z"/>
</g>
<g fill="None" fill-opacity="0.0" stroke="#AAB550" stroke-opacity="0.66" stroke-width="0.3"><path d="
M 86.00 34.00 
C 84.05 35.32 82.00 37.51 80.00 39.00
C 74.28 45.13 67.20 50.41 62.00 57.00
C 60.42 59.00 58.30 61.11 57.00 63.00
C 56.17 64.22 55.61 65.67 55.00 67.00
C 59.84 60.08 67.91 53.93 72.75 46.75 C 77.59 39.58 89.81 37.63 93.00 30.00
C 93.00 30.00 92.50 30.00 92.00 30.00
C 91.50 30.00 90.34 29.77 90.00 30.00
C 89.65 33.68 89.13 31.88 86.00 34.00 Z"/>
</g>
<g fill="None" fill-opacity="0.0" stroke="#A5B050" stroke-opacity="0.68" stroke-width="0.3"><path d="
M 251.00 69.00 
C 251.35 68.96 252.09 68.24 252.00 68.00
C 249.11 66.19 249.03 64.93 247.00 62.00
C 245.98 60.53 244.26 58.45 243.00 57.00
C 241.53 55.32 239.46 53.71 238.00 52.00
C 233.74 47.02 228.74 42.07 224.00 38.00
C 222.82 36.99 221.22 36.05 220.00 35.00
C 217.81 33.48 215.26 32.45 213.00 31.00
C 227.33 42.48 238.61 55.67 251.00 69.00 Z"/>
</g>
<g fill="None" fill-opacity="0.0" stroke="#486B6E" stroke-opacity="0.30" stroke-width="0.3"><path d="
M 81.00 37.00 
C 80.55 37.49 80.40 38.57 80.00 39.00
C 82.00 37.51 84.05 35.32 86.00 34.00
C 84.50 35.16 82.59 35.82 81.00 37.00 Z"/>
</g>
<g fill="None" fill-opacity="0.0" stroke="#2A507F" stroke-opacity="0.19" stroke-width="0.3"><path d="
M 60.00 58.00 
C 60.50 57.58 61.58 57.39 62.00 57.00
C 67.20 50.41 74.28 45.13 80.00 39.00
C 80.40 38.57 80.55 37.49 81.00 37.00
C 72.52 43.31 66.53 49.73 60.00 58.00 Z"/>
</g>
<g fill="None" fill-opacity="0.0" stroke="#335473" stroke-opacity="0.27" stroke-width="0.3"><path d="
M 238.00 52.00 
C 239.55 53.55 241.46 55.57 243.00 57.00
C 243.51 57.48 244.52 57.59 245.00 58.00
C 243.29 55.59 240.96 53.29 239.00 51.00
C 236.41 48.41 233.54 45.54 231.00 43.00
C 228.96 40.96 226.17 39.47 224.00 38.00
C 228.74 42.07 233.74 47.02 238.00 52.00 Z"/>
</g>
<g fill="None" fill-opacity="0.0" stroke="#1F3C8C" stroke-opacity="0.09" stroke-width="0.3"><path d="
M 239.00 51.00 
C 236.28 47.81 234.18 45.46 231.00 43.00
C 233.54 45.54 236.41 48.41 239.00 51.00 Z"/>
</g>
<g fill="None" fill-opacity="0.0" stroke="#FCBC04" stroke-opacity="1.00" stroke-width="0.3"><path d="
M 161.00 46.00 
C 155.37 48.02 152.43 47.19 147.00 46.00
C 145.81 50.01 150.27 49.58 152.00 51.00
C 147.55 56.07 140.83 51.57 135.00 54.00
C 133.83 58.20 132.15 62.15 133.00 67.00
C 130.72 67.91 128.02 70.86 127.00 73.00
C 129.94 72.41 132.09 74.59 135.00 74.00
C 133.09 79.39 137.11 86.18 134.00 90.00
C 134.52 92.81 138.43 91.22 139.00 94.00
C 130.47 90.91 132.66 102.75 129.70 104.69 C 126.73 106.63 119.77 107.19 117.00 106.00
C 116.81 111.17 115.10 117.72 120.00 121.00
C 118.30 122.98 117.51 125.27 118.00 128.00
C 114.97 127.40 111.82 127.30 109.00 126.00
C 105.68 129.70 108.59 133.61 108.00 138.00
C 112.70 138.03 114.81 141.31 118.00 144.00
C 120.13 142.76 121.39 140.32 124.00 142.00
C 119.00 138.40 124.99 139.58 126.03 135.03 C 127.06 130.47 129.54 130.17 133.00 128.00
C 137.25 128.28 136.90 133.82 141.00 132.00
C 138.40 130.68 140.64 129.11 139.00 127.00
C 134.54 127.44 131.92 123.11 127.00 124.00
C 127.52 120.41 124.25 119.40 124.00 116.00
C 129.99 116.76 130.00 105.07 137.00 108.00 C 143.99 110.94 146.97 105.31 153.00 105.00
C 153.57 98.18 157.22 91.44 154.00 86.00
C 157.70 84.28 162.18 85.26 166.00 84.00
C 165.71 88.88 162.58 89.93 161.00 94.00
C 169.62 102.75 178.70 115.48 194.00 109.00
C 191.87 112.40 193.36 113.87 195.00 117.00
C 197.68 112.57 196.89 104.98 199.75 100.76 C 202.62 96.53 213.27 103.45 215.00 97.00
C 213.95 101.58 217.07 106.10 222.00 105.00
C 220.84 107.76 222.46 109.94 222.00 113.00
C 227.56 111.73 226.64 115.09 226.00 119.00
C 230.09 119.57 236.45 114.38 240.22 117.78 C 243.99 121.18 239.36 127.52 236.00 128.00
C 240.08 139.39 242.72 129.10 247.00 124.00
C 246.57 120.06 243.47 115.86 246.00 112.00
C 238.39 109.97 241.34 101.04 246.00 98.00
C 244.85 94.70 243.53 91.57 242.00 89.00
C 245.62 88.30 246.41 82.77 242.00 82.00
C 240.43 83.95 241.76 88.37 238.00 88.00
C 241.43 80.05 230.07 86.94 225.68 82.32 C 221.29 77.71 212.26 81.79 210.00 75.00
C 207.00 75.00 204.00 75.00 201.00 75.00
C 199.61 70.34 195.39 69.92 196.00 65.00
C 191.67 67.81 190.19 61.99 186.00 63.00
C 186.61 66.07 183.40 67.96 184.00 71.00
C 177.20 73.83 179.40 65.46 174.00 66.00
C 175.36 54.26 157.17 57.99 161.00 46.00 Z"/>
</g>
<g fill="None" fill-opacity="0.0" stroke="#FCC203" stroke-opacity="1.00" stroke-width="0.3"><path d="
M 229.00 71.00 
C 230.09 61.24 231.04 52.34 218.67 50.33 C 206.31 48.32 209.79 60.01 214.00 67.00
C 216.14 67.61 219.99 67.73 219.00 71.00
C 222.33 71.00 225.67 71.00 229.00 71.00 Z"/>
</g>
<g fill="None" fill-opacity="0.0" stroke="#7F975F" stroke-opacity="0.47" stroke-width="0.3"><path d="
M 243.00 57.00 
C 241.46 55.57 239.55 53.55 238.00 52.00
C 239.46 53.71 241.53 55.32 243.00 57.00 Z"/>
</g>
<g fill="None" fill-opacity="0.0" stroke="#FCBD04" stroke-opacity="1.00" stroke-width="0.3"><path d="
M 44.00 96.00 
C 55.56 103.04 51.25 121.51 43.00 129.00
C 45.56 141.31 55.80 142.28 62.70 152.30 C 69.59 162.33 79.33 160.56 83.00 147.00
C 78.00 145.54 79.62 150.35 78.00 153.00
C 75.54 148.74 72.67 153.46 69.00 150.00
C 68.32 146.27 65.72 140.99 68.00 135.00
C 70.82 134.76 73.09 132.76 76.00 133.00
C 74.58 137.97 79.61 140.83 84.00 140.00
C 81.45 137.43 81.60 128.94 76.00 125.00
C 76.96 119.47 83.50 119.62 85.00 115.00
C 91.02 118.69 92.69 112.29 98.00 113.00
C 98.53 106.61 106.43 108.17 110.33 105.33 C 114.22 102.49 118.64 100.35 120.00 95.00
C 118.32 88.76 109.96 92.30 106.00 88.00
C 107.02 81.40 113.14 80.93 118.00 80.00
C 115.48 79.53 111.77 81.03 110.00 79.00
C 111.83 76.80 114.05 75.53 113.00 72.00
C 102.81 72.12 110.96 60.24 111.00 55.00
C 109.06 57.87 107.38 53.41 103.67 53.33 C 99.97 53.25 96.86 54.07 93.00 54.00
C 92.88 60.03 91.83 51.68 88.00 54.00
C 87.72 62.98 76.86 63.03 71.25 68.25 C 65.65 73.47 67.98 86.11 61.00 91.00
C 57.52 87.30 49.93 91.07 47.00 86.00
C 44.66 87.67 46.57 94.83 44.00 96.00 Z"/>
</g>
<g fill="None" fill-opacity="0.0" stroke="#3F6368" stroke-opacity="0.28" stroke-width="0.3"><path d="
M 60.00 58.00 
C 58.83 59.48 57.96 61.68 57.00 63.00
C 58.30 61.11 60.42 59.00 62.00 57.00
C 61.58 57.39 60.50 57.58 60.00 58.00 Z"/>
</g>
<g fill="None" fill-opacity="0.0" stroke="#3C605F" stroke-opacity="0.32" stroke-width="0.3"><path d="
M 247.00 62.00 
C 246.26 60.88 245.91 59.29 245.00 58.00
C 244.52 57.59 243.51 57.48 243.00 57.00
C 244.26 58.45 245.98 60.53 247.00 62.00 Z"/>
</g>
<g fill="None" fill-opacity="0.0" stroke="#234B75" stroke-opacity="0.17" stroke-width="0.3"><path d="
M 252.00 68.00 
C 251.15 65.63 248.25 63.90 247.00 62.00
C 249.03 64.93 249.11 66.19 252.00 68.00 Z"/>
</g>
<g fill="None" fill-opacity="0.0" stroke="#24458A" stroke-opacity="0.19" stroke-width="0.3"><path d="
M 51.00 71.00 
C 51.19 70.75 53.56 70.51 54.00 70.00
C 54.40 68.96 54.51 68.06 55.00 67.00
C 55.61 65.67 56.17 64.22 57.00 63.00
C 55.43 65.15 51.34 67.91 51.00 71.00 Z"/>
</g>
<g fill="None" fill-opacity="0.0" stroke="#B6B845" stroke-opacity="0.65" stroke-width="0.3"><path d="
M 51.00 71.00 
C 50.86 72.30 51.27 72.01 51.00 73.00
C 50.00 76.71 47.82 79.88 46.00 83.00
C 45.40 84.38 44.57 85.60 44.00 87.00
C 46.92 82.13 51.58 76.29 54.00 70.00
C 53.56 70.51 51.19 70.75 51.00 71.00 Z"/>
</g>
<g fill="None" fill-opacity="0.0" stroke="#A6AA4E" stroke-opacity="0.62" stroke-width="0.3"><path d="
M 263.00 96.00 
C 260.52 87.35 258.37 76.92 252.00 71.00
C 256.02 79.18 258.95 88.32 263.00 96.00 Z"/>
</g>
<g fill="None" fill-opacity="0.0" stroke="#9AA654" stroke-opacity="0.25" stroke-width="0.3"><path d="
M 46.00 83.00 
C 47.82 79.88 50.00 76.71 51.00 73.00
C 49.52 76.12 47.46 79.66 46.00 83.00 Z"/>
</g>
<g fill="None" fill-opacity="0.0" stroke="#FEFEFD" stroke-opacity="0.98" stroke-width="0.3"><path d="
M 268.00 144.00 
C 267.60 143.80 267.00 144.00 267.00 144.00
C 259.19 144.64 257.49 152.69 256.31 159.31 C 255.12 165.92 246.67 173.10 246.00 165.00 C 245.33 156.90 248.93 148.26 240.03 147.03 C 231.12 145.79 232.85 158.19 229.78 162.78 C 226.70 167.37 224.64 175.55 221.00 180.00
C 216.08 168.72 231.43 149.30 218.69 140.31 C 205.96 131.32 196.20 150.67 194.00 160.00
C 196.36 147.98 180.06 144.40 178.32 155.32 C 176.58 166.24 171.43 169.59 168.00 179.00
C 159.92 169.93 177.79 150.11 165.25 140.75 C 152.70 131.40 142.21 149.99 140.00 160.00
C 142.31 148.57 126.72 144.15 124.78 154.78 C 122.84 165.40 119.40 170.10 115.00 179.00
C 111.83 170.34 113.98 160.82 116.02 151.02 C 118.07 141.23 102.83 138.78 102.00 150.00
C 97.39 142.73 89.60 143.59 83.00 147.00
C 79.33 160.56 69.59 162.33 62.70 152.30 C 55.80 142.28 45.56 141.31 43.00 129.00
C 51.25 121.51 55.56 103.04 44.00 96.00
C 43.59 95.75 42.49 95.12 42.00 95.00
C 21.96 93.07 22.14 120.49 30.00 132.00
C 23.50 136.88 17.41 133.94 11.92 141.92 C 6.42 149.90 11.98 157.47 14.70 146.70 C 17.42 135.92 27.11 141.78 33.00 137.00
C 38.42 148.12 49.83 155.95 58.00 166.00
C 50.32 168.13 39.86 170.93 34.75 177.75 C 29.65 184.57 25.63 196.44 32.77 203.23 C 39.91 210.02 51.66 208.20 60.32 205.32 C 68.99 202.44 74.58 196.97 78.07 188.07 C 81.56 179.18 72.12 168.22 77.00 162.00
C 78.88 166.04 78.82 176.31 85.00 178.00 C 91.18 179.69 96.71 172.20 99.00 168.00
C 100.33 174.40 99.57 190.05 109.33 189.33 C 119.09 188.60 120.84 176.60 124.00 170.00
C 120.76 178.00 132.73 184.63 137.69 178.69 C 142.66 172.76 140.91 164.57 144.69 158.69 C 148.48 152.82 147.89 144.65 156.00 144.00
C 160.23 156.07 144.80 176.46 154.26 186.74 C 163.72 197.03 177.16 173.77 178.00 167.00
C 176.83 172.06 181.65 188.28 190.30 179.30 C 198.95 170.32 195.98 148.41 210.00 144.00
C 214.56 156.05 198.38 176.36 208.26 186.74 C 218.13 197.13 230.44 173.01 233.00 167.00
C 236.11 185.64 259.19 175.57 260.00 161.00
C 262.28 167.65 262.34 178.18 256.25 182.25 C 250.16 186.32 247.86 191.44 243.77 196.77 C 239.68 202.11 238.48 211.88 242.25 217.75 C 246.02 223.62 255.87 223.83 260.75 219.75 C 265.64 215.68 270.03 211.24 271.67 204.67 C 273.32 198.10 275.33 188.05 275.00 181.00 C 274.67 173.95 278.15 166.84 283.75 162.75 C 289.35 158.66 291.01 146.33 285.30 151.30 C 279.60 156.28 281.14 162.49 274.00 166.00
C 273.26 158.09 275.80 147.78 268.00 144.00
M 41.00 125.00 
C 37.87 121.85 37.11 99.48 43.25 100.81 C 49.39 102.13 45.80 122.59 41.00 125.00
M 102.00 155.00 
C 98.42 159.71 97.09 165.62 93.00 170.00
C 88.86 163.58 92.52 143.03 102.00 155.00
M 62.00 170.00 
C 73.38 181.55 55.74 210.64 39.33 201.67 C 22.92 192.71 47.43 165.84 62.00 170.00
M 261.00 185.00 
C 259.92 196.10 261.05 199.79 255.08 210.08 C 249.11 220.37 241.67 210.93 246.31 202.31 C 250.94 193.68 253.95 191.11 261.00 185.00 Z"/>
</g>
<g fill="None" fill-opacity="0.0" stroke="#FAC90A" stroke-opacity="0.99" stroke-width="0.3"><path d="
M 41.00 125.00 
C 45.80 122.59 49.39 102.13 43.25 100.81 C 37.11 99.48 37.87 121.85 41.00 125.00 Z"/>
</g>
<g fill="None" fill-opacity="0.0" stroke="#AAC054" stroke-opacity="0.65" stroke-width="0.3"><path d="
M 266.00 108.00 
C 265.68 106.33 265.29 104.24 265.00 103.00
C 265.24 105.00 265.50 106.47 266.00 108.00 Z"/>
</g>
<g fill="None" fill-opacity="0.0" stroke="#466B6E" stroke-opacity="0.59" stroke-width="0.3"><path d="
M 268.00 117.00 
C 268.11 114.90 267.38 113.48 267.00 112.00
C 267.27 114.02 267.44 115.43 268.00 117.00 Z"/>
</g>
<g fill="None" fill-opacity="0.0" stroke="#E3DE42" stroke-opacity="0.73" stroke-width="0.3"><path d="
M 267.00 144.00 
C 267.00 144.00 267.60 143.80 268.00 144.00
C 268.74 135.82 268.00 127.22 268.00 119.00
C 265.46 124.97 266.37 136.99 267.00 144.00 Z"/>
</g>
<g fill="None" fill-opacity="0.0" stroke="#FBBF08" stroke-opacity="1.00" stroke-width="0.3"><path d="
M 102.00 155.00 
C 92.52 143.03 88.86 163.58 93.00 170.00
C 97.09 165.62 98.42 159.71 102.00 155.00 Z"/>
</g>
<g fill="None" fill-opacity="0.0" stroke="#000000" stroke-opacity="0.00" stroke-width="0.3"><path d="
M 62.00 170.00 
C 47.43 165.84 22.92 192.71 39.33 201.67 C 55.74 210.64 73.38 181.55 62.00 170.00 Z"/>
</g>
<g fill="None" fill-opacity="0.0" stroke="#000000" stroke-opacity="0.00" stroke-width="0.3"><path d="
M 261.00 185.00 
C 253.95 191.11 250.94 193.68 246.31 202.31 C 241.67 210.93 249.11 220.37 255.08 210.08 C 261.05 199.79 259.92 196.10 261.00 185.00 Z"/>
</g>
<g fill="#000000" fill-opacity="0.00" stroke="None">
<path d="
M 0.00 249.00 
L 296.00 249.00
L 296.00 0.00
L 0.00 0.00
L 0.00 249.00
M 166.00 15.00 
C 173.47 15.65 180.84 17.00 188.00 19.00
C 192.02 20.12 196.05 21.73 200.00 23.00
C 203.03 23.97 207.22 25.15 209.00 28.00
C 209.50 28.04 210.00 28.00 210.00 28.00
C 213.92 28.86 217.14 32.55 220.00 35.00
C 221.22 36.05 222.82 36.99 224.00 38.00
C 226.17 39.47 228.96 40.96 231.00 43.00
C 234.18 45.46 236.28 47.81 239.00 51.00
C 240.96 53.29 243.29 55.59 245.00 58.00
C 245.91 59.29 246.26 60.88 247.00 62.00
C 248.25 63.90 251.15 65.63 252.00 68.00
C 252.09 68.24 251.35 68.96 251.00 69.00
C 251.50 69.54 251.69 70.37 252.00 71.00
C 258.37 76.92 260.52 87.35 263.00 96.00
C 263.61 98.12 264.69 100.39 265.00 103.00
C 265.29 104.24 265.68 106.33 266.00 108.00
C 266.26 109.35 266.80 110.49 267.00 112.00
C 267.38 113.48 268.11 114.90 268.00 117.00
C 267.97 117.50 268.00 118.50 268.00 119.00
C 268.00 127.22 268.74 135.82 268.00 144.00
C 275.80 147.78 273.26 158.09 274.00 166.00
C 281.14 162.49 279.60 156.28 285.30 151.30 C 291.01 146.33 289.35 158.66 283.75 162.75 C 278.15 166.84 274.67 173.95 275.00 181.00 C 275.33 188.05 273.32 198.10 271.67 204.67 C 270.03 211.24 265.64 215.68 260.75 219.75 C 255.87 223.83 246.02 223.62 242.25 217.75 C 238.48 211.88 239.68 202.11 243.77 196.77 C 247.86 191.44 250.16 186.32 256.25 182.25 C 262.34 178.18 262.28 167.65 260.00 161.00
C 259.19 175.57 236.11 185.64 233.00 167.00
C 230.44 173.01 218.13 197.13 208.26 186.74 C 198.38 176.36 214.56 156.05 210.00 144.00
C 195.98 148.41 198.95 170.32 190.30 179.30 C 181.65 188.28 176.83 172.06 178.00 167.00
C 177.16 173.77 163.72 197.03 154.26 186.74 C 144.80 176.46 160.23 156.07 156.00 144.00
C 147.89 144.65 148.48 152.82 144.69 158.69 C 140.91 164.57 142.66 172.76 137.69 178.69 C 132.73 184.63 120.76 178.00 124.00 170.00
C 120.84 176.60 119.09 188.60 109.33 189.33 C 99.57 190.05 100.33 174.40 99.00 168.00
C 96.71 172.20 91.18 179.69 85.00 178.00 C 78.82 176.31 78.88 166.04 77.00 162.00
C 72.12 168.22 81.56 179.18 78.07 188.07 C 74.58 196.97 68.99 202.44 60.32 205.32 C 51.66 208.20 39.91 210.02 32.77 203.23 C 25.63 196.44 29.65 184.57 34.75 177.75 C 39.86 170.93 50.32 168.13 58.00 166.00
C 49.83 155.95 38.42 148.12 33.00 137.00
C 27.11 141.78 17.42 135.92 14.70 146.70 C 11.98 157.47 6.42 149.90 11.92 141.92 C 17.41 133.94 23.50 136.88 30.00 132.00
C 22.14 120.49 21.96 93.07 42.00 95.00
C 41.31 93.36 43.36 88.57 44.00 87.00
C 44.57 85.60 45.40 84.38 46.00 83.00
C 47.46 79.66 49.52 76.12 51.00 73.00
C 51.27 72.01 50.86 72.30 51.00 71.00
C 51.34 67.91 55.43 65.15 57.00 63.00
C 57.96 61.68 58.83 59.48 60.00 58.00
C 66.53 49.73 72.52 43.31 81.00 37.00
C 82.59 35.82 84.50 35.16 86.00 34.00
C 87.44 32.89 88.57 30.97 90.00 30.00
C 90.34 29.77 91.50 30.00 92.00 30.00
C 92.55 28.28 94.55 27.68 96.00 27.00
C 98.17 25.97 100.71 25.00 103.00 24.00
C 104.51 23.34 106.38 22.59 108.00 22.00
C 109.85 21.05 110.74 20.56 113.00 20.00
C 121.29 17.96 129.30 15.75 138.00 15.00
C 139.34 14.74 141.08 14.08 143.00 14.00
C 148.93 13.76 155.07 13.76 161.00 14.00
C 162.97 14.08 164.66 14.74 166.00 15.00 Z"/>
</g>
<g fill="#5E6A76" fill-opacity="0.58" stroke="None">
<path d="
M 138.00 15.00 
C 139.74 14.85 141.88 14.16 143.00 14.00
C 141.08 14.08 139.34 14.74 138.00 15.00 Z"/>
</g>
<g fill="#FBD50A" fill-opacity="1.00" stroke="None">
<path d="
M 138.00 15.00 
C 129.30 15.75 121.29 17.96 113.00 20.00
C 112.76 20.07 112.34 20.85 112.00 21.00
C 109.28 23.27 106.25 23.69 103.00 25.00
C 100.68 26.33 98.35 27.77 96.00 29.00
C 94.91 29.57 94.30 29.99 93.00 30.00
C 89.81 37.63 77.59 39.58 72.75 46.75 C 67.91 53.93 59.84 60.08 55.00 67.00
C 54.51 68.06 54.40 68.96 54.00 70.00
C 51.58 76.29 46.92 82.13 44.00 87.00
C 43.36 88.57 41.31 93.36 42.00 95.00
C 42.49 95.12 43.59 95.75 44.00 96.00
C 46.57 94.83 44.66 87.67 47.00 86.00
C 49.93 91.07 57.52 87.30 61.00 91.00
C 67.98 86.11 65.65 73.47 71.25 68.25 C 76.86 63.03 87.72 62.98 88.00 54.00
C 91.83 51.68 92.88 60.03 93.00 54.00
C 96.86 54.07 99.97 53.25 103.67 53.33 C 107.38 53.41 109.06 57.87 111.00 55.00
C 110.96 60.24 102.81 72.12 113.00 72.00
C 114.05 75.53 111.83 76.80 110.00 79.00
C 111.77 81.03 115.48 79.53 118.00 80.00
C 113.14 80.93 107.02 81.40 106.00 88.00
C 109.96 92.30 118.32 88.76 120.00 95.00
C 118.64 100.35 114.22 102.49 110.33 105.33 C 106.43 108.17 98.53 106.61 98.00 113.00
C 92.69 112.29 91.02 118.69 85.00 115.00
C 83.50 119.62 76.96 119.47 76.00 125.00
C 81.60 128.94 81.45 137.43 84.00 140.00
C 79.61 140.83 74.58 137.97 76.00 133.00
C 73.09 132.76 70.82 134.76 68.00 135.00
C 65.72 140.99 68.32 146.27 69.00 150.00
C 72.67 153.46 75.54 148.74 78.00 153.00
C 79.62 150.35 78.00 145.54 83.00 147.00
C 89.60 143.59 97.39 142.73 102.00 150.00
C 102.83 138.78 118.07 141.23 116.02 151.02 C 113.98 160.82 111.83 170.34 115.00 179.00
C 119.40 170.10 122.84 165.40 124.78 154.78 C 126.72 144.15 142.31 148.57 140.00 160.00
C 142.21 149.99 152.70 131.40 165.25 140.75 C 177.79 150.11 159.92 169.93 168.00 179.00
C 171.43 169.59 176.58 166.24 178.32 155.32 C 180.06 144.40 196.36 147.98 194.00 160.00
C 196.20 150.67 205.96 131.32 218.69 140.31 C 231.43 149.30 216.08 168.72 221.00 180.00
C 224.64 175.55 226.70 167.37 229.78 162.78 C 232.85 158.19 231.12 145.79 240.03 147.03 C 248.93 148.26 245.33 156.90 246.00 165.00 C 246.67 173.10 255.12 165.92 256.31 159.31 C 257.49 152.69 259.19 144.64 267.00 144.00
C 266.37 136.99 265.46 124.97 268.00 119.00
C 268.00 118.50 267.97 117.50 268.00 117.00
C 267.44 115.43 267.27 114.02 267.00 112.00
C 266.80 110.49 266.26 109.35 266.00 108.00
C 265.50 106.47 265.24 105.00 265.00 103.00
C 264.69 100.39 263.61 98.12 263.00 96.00
C 258.95 88.32 256.02 79.18 252.00 71.00
C 251.69 70.37 251.50 69.54 251.00 69.00
C 238.61 55.67 227.33 42.48 213.00 31.00
C 211.11 29.78 210.72 30.18 210.00 28.00
C 210.00 28.00 209.50 28.04 209.00 28.00
C 205.85 27.77 202.76 25.59 200.00 24.00
C 195.53 24.31 191.43 20.38 188.00 19.00
C 180.84 17.00 173.47 15.65 166.00 15.00
C 164.26 14.85 162.12 14.16 161.00 14.00
C 155.07 13.76 148.93 13.76 143.00 14.00
C 141.88 14.16 139.74 14.85 138.00 15.00
M 161.00 46.00 
C 157.17 57.99 175.36 54.26 174.00 66.00
C 179.40 65.46 177.20 73.83 184.00 71.00
C 183.40 67.96 186.61 66.07 186.00 63.00
C 190.19 61.99 191.67 67.81 196.00 65.00
C 195.39 69.92 199.61 70.34 201.00 75.00
C 204.00 75.00 207.00 75.00 210.00 75.00
C 212.26 81.79 221.29 77.71 225.68 82.32 C 230.07 86.94 241.43 80.05 238.00 88.00
C 241.76 88.37 240.43 83.95 242.00 82.00
C 246.41 82.77 245.62 88.30 242.00 89.00
C 243.53 91.57 244.85 94.70 246.00 98.00
C 241.34 101.04 238.39 109.97 246.00 112.00
C 243.47 115.86 246.57 120.06 247.00 124.00
C 242.72 129.10 240.08 139.39 236.00 128.00
C 239.36 127.52 243.99 121.18 240.22 117.78 C 236.45 114.38 230.09 119.57 226.00 119.00
C 226.64 115.09 227.56 111.73 222.00 113.00
C 222.46 109.94 220.84 107.76 222.00 105.00
C 217.07 106.10 213.95 101.58 215.00 97.00
C 213.27 103.45 202.62 96.53 199.75 100.76 C 196.89 104.98 197.68 112.57 195.00 117.00
C 193.36 113.87 191.87 112.40 194.00 109.00
C 178.70 115.48 169.62 102.75 161.00 94.00
C 162.58 89.93 165.71 88.88 166.00 84.00
C 162.18 85.26 157.70 84.28 154.00 86.00
C 157.22 91.44 153.57 98.18 153.00 105.00
C 146.97 105.31 143.99 110.94 137.00 108.00 C 130.00 105.07 129.99 116.76 124.00 116.00
C 124.25 119.40 127.52 120.41 127.00 124.00
C 131.92 123.11 134.54 127.44 139.00 127.00
C 140.64 129.11 138.40 130.68 141.00 132.00
C 136.90 133.82 137.25 128.28 133.00 128.00
C 129.54 130.17 127.06 130.47 126.03 135.03 C 124.99 139.58 119.00 138.40 124.00 142.00
C 121.39 140.32 120.13 142.76 118.00 144.00
C 114.81 141.31 112.70 138.03 108.00 138.00
C 108.59 133.61 105.68 129.70 109.00 126.00
C 111.82 127.30 114.97 127.40 118.00 128.00
C 117.51 125.27 118.30 122.98 120.00 121.00
C 115.10 117.72 116.81 111.17 117.00 106.00
C 119.77 107.19 126.73 106.63 129.70 104.69 C 132.66 102.75 130.47 90.91 139.00 94.00
C 138.43 91.22 134.52 92.81 134.00 90.00
C 137.11 86.18 133.09 79.39 135.00 74.00
C 132.09 74.59 129.94 72.41 127.00 73.00
C 128.02 70.86 130.72 67.91 133.00 67.00
C 132.15 62.15 133.83 58.20 135.00 54.00
C 140.83 51.57 147.55 56.07 152.00 51.00
C 150.27 49.58 145.81 50.01 147.00 46.00
C 152.43 47.19 155.37 48.02 161.00 46.00
M 229.00 71.00 
C 225.67 71.00 222.33 71.00 219.00 71.00
C 219.99 67.73 216.14 67.61 214.00 67.00
C 209.79 60.01 206.31 48.32 218.67 50.33 C 231.04 52.34 230.09 61.24 229.00 71.00 Z"/>
</g>
<g fill="#667761" fill-opacity="0.58" stroke="None">
<path d="
M 166.00 15.00 
C 164.66 14.74 162.97 14.08 161.00 14.00
C 162.12 14.16 164.26 14.85 166.00 15.00 Z"/>
</g>
<g fill="#A8B555" fill-opacity="0.49" stroke="None">
<path d="
M 200.00 24.00 
C 199.78 23.88 200.00 23.00 200.00 23.00
C 196.05 21.73 192.02 20.12 188.00 19.00
C 191.43 20.38 195.53 24.31 200.00 24.00 Z"/>
</g>
<g fill="#33507B" fill-opacity="0.19" stroke="None">
<path d="
M 108.00 22.00 
C 109.20 21.56 110.81 21.52 112.00 21.00
C 112.34 20.85 112.76 20.07 113.00 20.00
C 110.74 20.56 109.85 21.05 108.00 22.00 Z"/>
</g>
<g fill="#94A852" fill-opacity="0.45" stroke="None">
<path d="
M 108.00 22.00 
C 106.38 22.59 104.51 23.34 103.00 24.00
C 102.86 24.04 103.00 25.00 103.00 25.00
C 106.25 23.69 109.28 23.27 112.00 21.00
C 110.81 21.52 109.20 21.56 108.00 22.00 Z"/>
</g>
<g fill="#3D5B7C" fill-opacity="0.22" stroke="None">
<path d="
M 200.00 24.00 
C 202.76 25.59 205.85 27.77 209.00 28.00
C 207.22 25.15 203.03 23.97 200.00 23.00
C 200.00 23.00 199.78 23.88 200.00 24.00 Z"/>
</g>
<g fill="#6E885D" fill-opacity="0.30" stroke="None">
<path d="
M 96.00 27.00 
C 95.75 27.21 96.17 28.57 96.00 29.00
C 98.35 27.77 100.68 26.33 103.00 25.00
C 103.00 25.00 102.86 24.04 103.00 24.00
C 100.71 25.00 98.17 25.97 96.00 27.00 Z"/>
</g>
<g fill="#405E88" fill-opacity="0.24" stroke="None">
<path d="
M 92.00 30.00 
C 92.50 30.00 93.00 30.00 93.00 30.00
C 94.30 29.99 94.91 29.57 96.00 29.00
C 96.17 28.57 95.75 27.21 96.00 27.00
C 94.55 27.68 92.55 28.28 92.00 30.00 Z"/>
</g>
<g fill="#334F83" fill-opacity="0.20" stroke="None">
<path d="
M 213.00 31.00 
C 215.26 32.45 217.81 33.48 220.00 35.00
C 217.14 32.55 213.92 28.86 210.00 28.00
C 210.72 30.18 211.11 29.78 213.00 31.00 Z"/>
</g>
<g fill="#2D4D74" fill-opacity="0.20" stroke="None">
<path d="
M 86.00 34.00 
C 89.13 31.88 89.65 33.68 90.00 30.00
C 88.57 30.97 87.44 32.89 86.00 34.00 Z"/>
</g>
<g fill="#AAB550" fill-opacity="0.66" stroke="None">
<path d="
M 86.00 34.00 
C 84.05 35.32 82.00 37.51 80.00 39.00
C 74.28 45.13 67.20 50.41 62.00 57.00
C 60.42 59.00 58.30 61.11 57.00 63.00
C 56.17 64.22 55.61 65.67 55.00 67.00
C 59.84 60.08 67.91 53.93 72.75 46.75 C 77.59 39.58 89.81 37.63 93.00 30.00
C 93.00 30.00 92.50 30.00 92.00 30.00
C 91.50 30.00 90.34 29.77 90.00 30.00
C 89.65 33.68 89.13 31.88 86.00 34.00 Z"/>
</g>
<g fill="#A5B050" fill-opacity="0.68" stroke="None">
<path d="
M 251.00 69.00 
C 251.35 68.96 252.09 68.24 252.00 68.00
C 249.11 66.19 249.03 64.93 247.00 62.00
C 245.98 60.53 244.26 58.45 243.00 57.00
C 241.53 55.32 239.46 53.71 238.00 52.00
C 233.74 47.02 228.74 42.07 224.00 38.00
C 222.82 36.99 221.22 36.05 220.00 35.00
C 217.81 33.48 215.26 32.45 213.00 31.00
C 227.33 42.48 238.61 55.67 251.00 69.00 Z"/>
</g>
<g fill="#486B6E" fill-opacity="0.30" stroke="None">
<path d="
M 81.00 37.00 
C 80.55 37.49 80.40 38.57 80.00 39.00
C 82.00 37.51 84.05 35.32 86.00 34.00
C 84.50 35.16 82.59 35.82 81.00 37.00 Z"/>
</g>
<g fill="#2A507F" fill-opacity="0.19" stroke="None">
<path d="
M 60.00 58.00 
C 60.50 57.58 61.58 57.39 62.00 57.00
C 67.20 50.41 74.28 45.13 80.00 39.00
C 80.40 38.57 80.55 37.49 81.00 37.00
C 72.52 43.31 66.53 49.73 60.00 58.00 Z"/>
</g>
<g fill="#335473" fill-opacity="0.27" stroke="None">
<path d="
M 238.00 52.00 
C 239.55 53.55 241.46 55.57 243.00 57.00
C 243.51 57.48 244.52 57.59 245.00 58.00
C 243.29 55.59 240.96 53.29 239.00 51.00
C 236.41 48.41 233.54 45.54 231.00 43.00
C 228.96 40.96 226.17 39.47 224.00 38.00
C 228.74 42.07 233.74 47.02 238.00 52.00 Z"/>
</g>
<g fill="#1F3C8C" fill-opacity="0.09" stroke="None">
<path d="
M 239.00 51.00 
C 236.28 47.81 234.18 45.46 231.00 43.00
C 233.54 45.54 236.41 48.41 239.00 51.00 Z"/>
</g>
<g fill="#FCBC04" fill-opacity="1.00" stroke="None">
<path d="
M 161.00 46.00 
C 155.37 48.02 152.43 47.19 147.00 46.00
C 145.81 50.01 150.27 49.58 152.00 51.00
C 147.55 56.07 140.83 51.57 135.00 54.00
C 133.83 58.20 132.15 62.15 133.00 67.00
C 130.72 67.91 128.02 70.86 127.00 73.00
C 129.94 72.41 132.09 74.59 135.00 74.00
C 133.09 79.39 137.11 86.18 134.00 90.00
C 134.52 92.81 138.43 91.22 139.00 94.00
C 130.47 90.91 132.66 102.75 129.70 104.69 C 126.73 106.63 119.77 107.19 117.00 106.00
C 116.81 111.17 115.10 117.72 120.00 121.00
C 118.30 122.98 117.51 125.27 118.00 128.00
C 114.97 127.40 111.82 127.30 109.00 126.00
C 105.68 129.70 108.59 133.61 108.00 138.00
C 112.70 138.03 114.81 141.31 118.00 144.00
C 120.13 142.76 121.39 140.32 124.00 142.00
C 119.00 138.40 124.99 139.58 126.03 135.03 C 127.06 130.47 129.54 130.17 133.00 128.00
C 137.25 128.28 136.90 133.82 141.00 132.00
C 138.40 130.68 140.64 129.11 139.00 127.00
C 134.54 127.44 131.92 123.11 127.00 124.00
C 127.52 120.41 124.25 119.40 124.00 116.00
C 129.99 116.76 130.00 105.07 137.00 108.00 C 143.99 110.94 146.97 105.31 153.00 105.00
C 153.57 98.18 157.22 91.44 154.00 86.00
C 157.70 84.28 162.18 85.26 166.00 84.00
C 165.71 88.88 162.58 89.93 161.00 94.00
C 169.62 102.75 178.70 115.48 194.00 109.00
C 191.87 112.40 193.36 113.87 195.00 117.00
C 197.68 112.57 196.89 104.98 199.75 100.76 C 202.62 96.53 213.27 103.45 215.00 97.00
C 213.95 101.58 217.07 106.10 222.00 105.00
C 220.84 107.76 222.46 109.94 222.00 113.00
C 227.56 111.73 226.64 115.09 226.00 119.00
C 230.09 119.57 236.45 114.38 240.22 117.78 C 243.99 121.18 239.36 127.52 236.00 128.00
C 240.08 139.39 242.72 129.10 247.00 124.00
C 246.57 120.06 243.47 115.86 246.00 112.00
C 238.39 109.97 241.34 101.04 246.00 98.00
C 244.85 94.70 243.53 91.57 242.00 89.00
C 245.62 88.30 246.41 82.77 242.00 82.00
C 240.43 83.95 241.76 88.37 238.00 88.00
C 241.43 80.05 230.07 86.94 225.68 82.32 C 221.29 77.71 212.26 81.79 210.00 75.00
C 207.00 75.00 204.00 75.00 201.00 75.00
C 199.61 70.34 195.39 69.92 196.00 65.00
C 191.67 67.81 190.19 61.99 186.00 63.00
C 186.61 66.07 183.40 67.96 184.00 71.00
C 177.20 73.83 179.40 65.46 174.00 66.00
C 175.36 54.26 157.17 57.99 161.00 46.00 Z"/>
</g>
<g fill="#FCC203" fill-opacity="1.00" stroke="None">
<path d="
M 229.00 71.00 
C 230.09 61.24 231.04 52.34 218.67 50.33 C 206.31 48.32 209.79 60.01 214.00 67.00
C 216.14 67.61 219.99 67.73 219.00 71.00
C 222.33 71.00 225.67 71.00 229.00 71.00 Z"/>
</g>
<g fill="#7F975F" fill-opacity="0.47" stroke="None">
<path d="
M 243.00 57.00 
C 241.46 55.57 239.55 53.55 238.00 52.00
C 239.46 53.71 241.53 55.32 243.00 57.00 Z"/>
</g>
<g fill="#FCBD04" fill-opacity="1.00" stroke="None">
<path d="
M 44.00 96.00 
C 55.56 103.04 51.25 121.51 43.00 129.00
C 45.56 141.31 55.80 142.28 62.70 152.30 C 69.59 162.33 79.33 160.56 83.00 147.00
C 78.00 145.54 79.62 150.35 78.00 153.00
C 75.54 148.74 72.67 153.46 69.00 150.00
C 68.32 146.27 65.72 140.99 68.00 135.00
C 70.82 134.76 73.09 132.76 76.00 133.00
C 74.58 137.97 79.61 140.83 84.00 140.00
C 81.45 137.43 81.60 128.94 76.00 125.00
C 76.96 119.47 83.50 119.62 85.00 115.00
C 91.02 118.69 92.69 112.29 98.00 113.00
C 98.53 106.61 106.43 108.17 110.33 105.33 C 114.22 102.49 118.64 100.35 120.00 95.00
C 118.32 88.76 109.96 92.30 106.00 88.00
C 107.02 81.40 113.14 80.93 118.00 80.00
C 115.48 79.53 111.77 81.03 110.00 79.00
C 111.83 76.80 114.05 75.53 113.00 72.00
C 102.81 72.12 110.96 60.24 111.00 55.00
C 109.06 57.87 107.38 53.41 103.67 53.33 C 99.97 53.25 96.86 54.07 93.00 54.00
C 92.88 60.03 91.83 51.68 88.00 54.00
C 87.72 62.98 76.86 63.03 71.25 68.25 C 65.65 73.47 67.98 86.11 61.00 91.00
C 57.52 87.30 49.93 91.07 47.00 86.00
C 44.66 87.67 46.57 94.83 44.00 96.00 Z"/>
</g>
<g fill="#3F6368" fill-opacity="0.28" stroke="None">
<path d="
M 60.00 58.00 
C 58.83 59.48 57.96 61.68 57.00 63.00
C 58.30 61.11 60.42 59.00 62.00 57.00
C 61.58 57.39 60.50 57.58 60.00 58.00 Z"/>
</g>
<g fill="#3C605F" fill-opacity="0.32" stroke="None">
<path d="
M 247.00 62.00 
C 246.26 60.88 245.91 59.29 245.00 58.00
C 244.52 57.59 243.51 57.48 243.00 57.00
C 244.26 58.45 245.98 60.53 247.00 62.00 Z"/>
</g>
<g fill="#234B75" fill-opacity="0.17" stroke="None">
<path d="
M 252.00 68.00 
C 251.15 65.63 248.25 63.90 247.00 62.00
C 249.03 64.93 249.11 66.19 252.00 68.00 Z"/>
</g>
<g fill="#24458A" fill-opacity="0.19" stroke="None">
<path d="
M 51.00 71.00 
C 51.19 70.75 53.56 70.51 54.00 70.00
C 54.40 68.96 54.51 68.06 55.00 67.00
C 55.61 65.67 56.17 64.22 57.00 63.00
C 55.43 65.15 51.34 67.91 51.00 71.00 Z"/>
</g>
<g fill="#B6B845" fill-opacity="0.65" stroke="None">
<path d="
M 51.00 71.00 
C 50.86 72.30 51.27 72.01 51.00 73.00
C 50.00 76.71 47.82 79.88 46.00 83.00
C 45.40 84.38 44.57 85.60 44.00 87.00
C 46.92 82.13 51.58 76.29 54.00 70.00
C 53.56 70.51 51.19 70.75 51.00 71.00 Z"/>
</g>
<g fill="#A6AA4E" fill-opacity="0.62" stroke="None">
<path d="
M 263.00 96.00 
C 260.52 87.35 258.37 76.92 252.00 71.00
C 256.02 79.18 258.95 88.32 263.00 96.00 Z"/>
</g>
<g fill="#9AA654" fill-opacity="0.25" stroke="None">
<path d="
M 46.00 83.00 
C 47.82 79.88 50.00 76.71 51.00 73.00
C 49.52 76.12 47.46 79.66 46.00 83.00 Z"/>
</g>
<g fill="#FEFEFD" fill-opacity="0.98" stroke="None">
<path d="
M 268.00 144.00 
C 267.60 143.80 267.00 144.00 267.00 144.00
C 259.19 144.64 257.49 152.69 256.31 159.31 C 255.12 165.92 246.67 173.10 246.00 165.00 C 245.33 156.90 248.93 148.26 240.03 147.03 C 231.12 145.79 232.85 158.19 229.78 162.78 C 226.70 167.37 224.64 175.55 221.00 180.00
C 216.08 168.72 231.43 149.30 218.69 140.31 C 205.96 131.32 196.20 150.67 194.00 160.00
C 196.36 147.98 180.06 144.40 178.32 155.32 C 176.58 166.24 171.43 169.59 168.00 179.00
C 159.92 169.93 177.79 150.11 165.25 140.75 C 152.70 131.40 142.21 149.99 140.00 160.00
C 142.31 148.57 126.72 144.15 124.78 154.78 C 122.84 165.40 119.40 170.10 115.00 179.00
C 111.83 170.34 113.98 160.82 116.02 151.02 C 118.07 141.23 102.83 138.78 102.00 150.00
C 97.39 142.73 89.60 143.59 83.00 147.00
C 79.33 160.56 69.59 162.33 62.70 152.30 C 55.80 142.28 45.56 141.31 43.00 129.00
C 51.25 121.51 55.56 103.04 44.00 96.00
C 43.59 95.75 42.49 95.12 42.00 95.00
C 21.96 93.07 22.14 120.49 30.00 132.00
C 23.50 136.88 17.41 133.94 11.92 141.92 C 6.42 149.90 11.98 157.47 14.70 146.70 C 17.42 135.92 27.11 141.78 33.00 137.00
C 38.42 148.12 49.83 155.95 58.00 166.00
C 50.32 168.13 39.86 170.93 34.75 177.75 C 29.65 184.57 25.63 196.44 32.77 203.23 C 39.91 210.02 51.66 208.20 60.32 205.32 C 68.99 202.44 74.58 196.97 78.07 188.07 C 81.56 179.18 72.12 168.22 77.00 162.00
C 78.88 166.04 78.82 176.31 85.00 178.00 C 91.18 179.69 96.71 172.20 99.00 168.00
C 100.33 174.40 99.57 190.05 109.33 189.33 C 119.09 188.60 120.84 176.60 124.00 170.00
C 120.76 178.00 132.73 184.63 137.69 178.69 C 142.66 172.76 140.91 164.57 144.69 158.69 C 148.48 152.82 147.89 144.65 156.00 144.00
C 160.23 156.07 144.80 176.46 154.26 186.74 C 163.72 197.03 177.16 173.77 178.00 167.00
C 176.83 172.06 181.65 188.28 190.30 179.30 C 198.95 170.32 195.98 148.41 210.00 144.00
C 214.56 156.05 198.38 176.36 208.26 186.74 C 218.13 197.13 230.44 173.01 233.00 167.00
C 236.11 185.64 259.19 175.57 260.00 161.00
C 262.28 167.65 262.34 178.18 256.25 182.25 C 250.16 186.32 247.86 191.44 243.77 196.77 C 239.68 202.11 238.48 211.88 242.25 217.75 C 246.02 223.62 255.87 223.83 260.75 219.75 C 265.64 215.68 270.03 211.24 271.67 204.67 C 273.32 198.10 275.33 188.05 275.00 181.00 C 274.67 173.95 278.15 166.84 283.75 162.75 C 289.35 158.66 291.01 146.33 285.30 151.30 C 279.60 156.28 281.14 162.49 274.00 166.00
C 273.26 158.09 275.80 147.78 268.00 144.00
M 41.00 125.00 
C 37.87 121.85 37.11 99.48 43.25 100.81 C 49.39 102.13 45.80 122.59 41.00 125.00
M 102.00 155.00 
C 98.42 159.71 97.09 165.62 93.00 170.00
C 88.86 163.58 92.52 143.03 102.00 155.00
M 62.00 170.00 
C 73.38 181.55 55.74 210.64 39.33 201.67 C 22.92 192.71 47.43 165.84 62.00 170.00
M 261.00 185.00 
C 259.92 196.10 261.05 199.79 255.08 210.08 C 249.11 220.37 241.67 210.93 246.31 202.31 C 250.94 193.68 253.95 191.11 261.00 185.00 Z"/>
</g>
<g fill="#FAC90A" fill-opacity="0.99" stroke="None">
<path d="
M 41.00 125.00 
C 45.80 122.59 49.39 102.13 43.25 100.81 C 37.11 99.48 37.87 121.85 41.00 125.00 Z"/>
</g>
<g fill="#AAC054" fill-opacity="0.65" stroke="None">
<path d="
M 266.00 108.00 
C 265.68 106.33 265.29 104.24 265.00 103.00
C 265.24 105.00 265.50 106.47 266.00 108.00 Z"/>
</g>
<g fill="#466B6E" fill-opacity="0.59" stroke="None">
<path d="
M 268.00 117.00 
C 268.11 114.90 267.38 113.48 267.00 112.00
C 267.27 114.02 267.44 115.43 268.00 117.00 Z"/>
</g>
<g fill="#E3DE42" fill-opacity="0.73" stroke="None">
<path d="
M 267.00 144.00 
C 267.00 144.00 267.60 143.80 268.00 144.00
C 268.74 135.82 268.00 127.22 268.00 119.00
C 265.46 124.97 266.37 136.99 267.00 144.00 Z"/>
</g>
<g fill="#FBBF08" fill-opacity="1.00" stroke="None">
<path d="
M 102.00 155.00 
C 92.52 143.03 88.86 163.58 93.00 170.00
C 97.09 165.62 98.42 159.71 102.00 155.00 Z"/>
</g>
<g fill="#000000" fill-opacity="0.00" stroke="None">
<path d="
M 62.00 170.00 
C 47.43 165.84 22.92 192.71 39.33 201.67 C 55.74 210.64 73.38 181.55 62.00 170.00 Z"/>
</g>
<g fill="#000000" fill-opacity="0.00" stroke="None">
<path d="
M 261.00 185.00 
C 253.95 191.11 250.94 193.68 246.31 202.31 C 241.67 210.93 249.11 220.37 255.08 210.08 C 261.05 199.79 259.92 196.10 261.00 185.00 Z"/>
</g>
</svg>