 <svg version="1.0" xmlns="http://www.w3.org/2000/svg"  width="100.000000pt" height="50.000000pt" viewBox="0 0 193.000000 105.000000"  preserveAspectRatio="xMidYMid meet">  <g transform="translate(0.000000,105.000000) scale(0.100000,-0.100000)" fill="#ffca18" stroke="none"> <path d="M765 893 c-94 -20 -240 -82 -350 -148 -191 -116 -254 -214 -159 -245 40 -14 123 -9 266 16 89 15 185 21 194 11 14 -14 -41 -51 -317 -210 -96 -56 -164 -105 -155 -114 2 -2 24 11 48 29 24 18 117 74 206 123 90 50 182 106 205 126 36 32 40 38 28 53 -18 21 -61 21 -246 -4 -180 -23 -215 -24 -240 -6 -19 14 -19 16 -3 50 22 45 142 135 265 199 186 96 375 139 409 93 21 -29 19 -34 -33 -86 -55 -54 -139 -92 -153 -70 -7 11 -11 11 -24 1 -26 -21 -19 -31 23 -31 70 0 180 73 207 138 18 41 6 66 -37 81 -39 13 -46 13 -134 -6z"/> <path d="M1414 540 c-25 -38 -49 -70 -54 -70 -6 0 -10 13 -10 29 0 17 -4 32 -9 35 -4 3 -34 -13 -66 -36 -32 -23 -54 -35 -50 -27 5 8 22 34 37 58 30 48 34 61 18 61 -6 0 -15 -12 -21 -27 -13 -35 -57 -93 -70 -93 -5 0 -9 13 -9 29 0 43 -13 45 -62 8 -23 -18 -49 -37 -57 -41 -15 -10 -16 -11 31 63 30 48 34 61 19 61 -5 0 -20 -20 -32 -45 -28 -57 -37 -64 -80 -67 -32 -3 -34 -1 -31 25 1 15 0 27 -4 27 -4 0 -35 -18 -70 -40 -72 -45 -86 -50 -58 -19 54 62 135 98 147 67 2 -7 8 -10 12 -6 10 10 -14 38 -32 38 -41 0 -163 -91 -163 -121 0 -19 48 -8 93 21 26 16 49 30 51 30 2 0 6 -10 9 -21 5 -19 11 -21 47 -15 38 6 40 5 30 -13 -24 -46 -7 -41 65 18 33 27 63 47 67 44 5 -2 6 -8 3 -13 -8 -13 6 -40 22 -40 10 0 12 -6 8 -20 -10 -32 9 -24 74 31 34 28 62 47 62 42 1 -4 2 -12 4 -18 1 -5 3 -16 3 -24 1 -8 10 -11 22 -8 16 4 20 0 20 -18 0 -12 7 -28 15 -35 22 -19 61 2 164 89 74 63 101 81 101 67 0 -18 -122 -192 -174 -246 -67 -72 -110 -136 -121 -182 -10 -40 16 -37 52 6 36 45 273 430 273 445 0 21 -35 11 -76 -22 -22 -17 -76 -60 -118 -95 -43 -34 -82 -60 -87 -57 -25 16 19 133 62 163 23 16 25 32 4 32 -9 0 -36 -31 -61 -70z m26 -330 c-52 -79 -60 -89 -60 -71 0 15 102 163 108 157 2 -3 -19 -42 -48 -86z"/> </g> </svg> 