 <svg  version="1.0" xmlns="http://www.w3.org/2000/svg"  width="100.000000pt" height="50.000000pt" viewBox="0 0 300.000000 148.000000"  preserveAspectRatio="xMidYMid meet">  <g transform="translate(0.000000,148.000000) scale(0.050000,-0.050000)" fill="#ffca18" stroke="none"> <path d="M740 2678 c0 -13 -18 -18 -42 -12 -23 6 -37 6 -31 0 7 -6 -21 -37 -60 -69 -40 -31 -66 -57 -59 -57 7 0 2 -20 -11 -45 -29 -53 -36 -294 -10 -330 10 -14 13 -32 6 -39 -7 -7 -3 -24 10 -39 12 -15 14 -27 4 -27 -9 0 -7 -7 5 -15 44 -29 53 -104 14 -117 -204 -66 -346 -152 -346 -209 0 -10 -10 -19 -21 -19 -12 0 -16 -17 -10 -38 7 -21 4 -44 -7 -51 -31 -19 -2 -71 40 -71 26 0 38 14 38 45 0 91 75 174 212 236 164 74 171 73 214 -6 40 -73 156 -206 339 -389 128 -128 132 -141 54 -156 -450 -87 -680 -574 -356 -753 52 -28 357 -41 357 -15 0 9 14 12 30 5 17 -6 30 -2 30 10 0 12 14 17 30 10 17 -6 30 -2 30 8 0 11 28 32 63 46 76 32 215 172 230 234 6 25 17 45 25 45 30 0 -14 279 -58 369 -48 101 -49 99 45 152 39 23 39 24 44 -106 11 -236 218 -260 367 -43 63 93 73 72 60 -125 -4 -70 0 -127 10 -127 10 0 13 -13 7 -30 -7 -16 -3 -30 8 -30 10 0 19 -13 19 -28 0 -46 114 -61 171 -23 72 47 162 179 199 292 48 144 79 150 65 12 -13 -124 8 -153 111 -153 58 0 154 71 154 113 0 139 250 616 317 603 37 -7 58 -196 21 -196 -14 0 -18 -19 -10 -50 8 -29 4 -50 -8 -50 -12 0 -16 -21 -8 -50 7 -28 4 -50 -7 -50 -11 0 -15 -23 -10 -50 6 -29 0 -50 -12 -50 -14 0 -17 -23 -10 -60 8 -38 4 -60 -10 -60 -13 0 -23 -27 -23 -60 0 -33 10 -60 22 -60 12 0 18 -11 13 -25 -4 -13 12 -46 36 -72 101 -109 258 1 403 282 l76 145 10 -150 10 -150 71 -6 c81 -7 189 62 171 108 -6 16 -1 28 11 28 12 0 16 13 10 30 -7 17 -2 30 10 30 12 0 16 13 10 29 -6 17 -2 35 8 42 11 6 14 20 8 30 -6 11 -1 19 12 19 13 0 18 14 12 30 -7 17 -2 30 9 30 11 0 15 9 8 20 -7 11 -4 20 7 20 11 0 26 29 34 65 22 101 122 235 176 235 36 0 50 -84 29 -170 -8 -33 -20 -96 -27 -140 -6 -44 -15 -98 -20 -120 -4 -22 -18 -85 -30 -140 -96 -452 343 -367 489 95 16 52 52 42 52 -15 0 -27 -2 -54 -5 -59 -14 -25 140 -111 199 -111 91 0 210 111 268 251 64 155 78 137 78 -101 0 -115 -8 -210 -18 -210 -37 0 -318 -292 -357 -370 -71 -145 -72 -287 -1 -356 96 -94 236 -148 236 -92 0 12 14 17 30 11 17 -7 30 -2 30 11 0 12 5 17 12 11 12 -12 105 79 178 175 76 99 113 259 121 524 l8 244 91 86 c49 47 90 96 90 109 0 13 8 27 18 30 32 12 120 159 110 184 -20 52 -89 33 -101 -28 -7 -33 -20 -59 -29 -59 -10 0 -18 -10 -18 -21 0 -12 -11 -34 -25 -50 -51 -56 -70 -83 -93 -126 -13 -24 -33 -39 -43 -32 -11 6 -15 19 -10 27 18 30 -27 363 -53 387 -92 88 -189 17 -258 -188 -88 -262 -192 -369 -238 -246 -26 68 -25 203 1 219 24 16 17 111 -11 143 -11 12 -27 19 -35 14 -8 -5 -15 -1 -15 10 0 11 -20 15 -45 9 -80 -17 -137 -53 -126 -80 5 -14 1 -26 -9 -26 -10 0 -14 -13 -8 -29 6 -16 -30 -117 -81 -224 -177 -373 -243 -350 -151 53 64 278 47 394 -63 451 -142 74 -357 -33 -388 -194 -5 -26 -18 -50 -29 -54 -11 -3 -20 -21 -20 -40 0 -54 -41 -183 -57 -183 -9 0 -15 59 -15 131 2 122 -1 131 -52 154 -29 13 -49 31 -43 39 5 9 -5 16 -23 16 -50 0 -101 -62 -129 -160 -47 -165 -220 -480 -262 -480 -31 0 -22 128 23 325 67 300 33 439 -114 467 -83 15 -228 -31 -257 -83 -11 -22 -25 -43 -31 -49 -15 -15 -86 -166 -91 -194 -36 -183 -87 -207 -76 -35 9 129 9 130 -52 156 -34 14 -56 32 -48 39 8 8 -2 14 -21 14 -57 0 -106 -65 -141 -190 -18 -66 -43 -142 -54 -170 -12 -27 -40 -99 -64 -160 -67 -169 -102 -156 -106 40 -1 88 6 160 16 160 11 0 13 30 6 70 -9 45 -6 70 8 70 14 0 17 23 9 63 -9 47 -6 59 12 48 17 -10 22 2 18 42 -3 31 -24 68 -46 81 -49 30 -198 35 -180 6 7 -11 2 -20 -10 -20 -14 0 -18 -16 -10 -40 21 -66 -8 -83 -60 -35 -84 79 -98 85 -193 85 -52 0 -91 -2 -88 -5 3 -3 -25 -38 -62 -77 -37 -39 -67 -84 -67 -100 0 -36 -89 -115 -146 -129 -48 -12 -443 364 -546 521 l-54 81 52 55 c134 140 158 441 44 558 -38 40 -70 64 -70 55 0 -9 -11 -6 -24 7 -30 30 -76 31 -76 2z m151 -147 c46 -111 19 -302 -61 -424 l-36 -56 -29 80 c-82 231 38 611 126 400z m1009 -931 c0 -11 11 -20 25 -20 98 0 40 -237 -87 -352 -75 -68 -84 268 -9 351 40 44 71 53 71 21z m-684 -385 c11 -14 24 -39 27 -55 4 -17 15 -36 24 -43 25 -17 34 -237 10 -237 -11 0 -14 -9 -7 -20 7 -11 2 -20 -10 -20 -12 0 -17 -8 -11 -19 27 -43 -201 -242 -236 -207 -7 7 -13 2 -13 -10 0 -13 -13 -18 -30 -11 -16 6 -30 1 -30 -11 0 -30 -126 -28 -156 2 -13 13 -24 18 -24 11 0 -8 -21 6 -46 31 -25 24 -42 55 -38 69 5 14 -2 25 -14 25 -12 0 -22 14 -22 30 0 17 10 30 22 30 14 0 18 19 10 49 -7 27 -3 54 8 61 11 7 15 21 9 31 -6 11 -1 19 11 19 12 0 18 8 12 17 -6 9 18 44 54 78 68 65 194 136 194 111 0 -9 7 -7 15 5 38 55 211 100 241 64z m3885 -474 c-36 -233 -155 -441 -253 -441 -47 0 -97 135 -70 186 13 25 25 65 27 89 2 25 11 45 20 45 9 0 24 22 34 49 11 26 71 104 135 172 134 143 143 135 107 -100z"/> </g> </svg> 